<svg xmlns="http://www.w3.org/2000/svg" width="17.479" height="17.448" viewBox="0 0 17.479 17.448"><defs><style>.a{fill:none;stroke:#fff;stroke-linecap:round;stroke-linejoin:round;}</style></defs><path class="a" d="M13.323,4.64a3.924,3.924,0,0,1,3.1,3.1m-3.1-6.24a7.064,7.064,0,0,1,6.24,6.232M18.778,14V16.35a1.57,1.57,0,0,1-1.711,1.57,15.533,15.533,0,0,1-6.774-2.41A15.305,15.305,0,0,1,5.584,10.8,15.533,15.533,0,0,1,3.174,4,1.57,1.57,0,0,1,4.736,2.285H7.091a1.57,1.57,0,0,1,1.57,1.35A10.078,10.078,0,0,0,9.21,5.84,1.57,1.57,0,0,1,8.857,7.5l-1,1A12.558,12.558,0,0,0,12.569,13.2l1-1a1.57,1.57,0,0,1,1.656-.353,10.078,10.078,0,0,0,2.206.549A1.57,1.57,0,0,1,18.778,14Z" transform="translate(18.427 -2.667) rotate(90)"/></svg>